<?xml version="1.0" encoding="utf-8" ?>
<svg baseProfile="full" height="100%" version="1.1" width="100%" xmlns="http://www.w3.org/2000/svg" xmlns:ev="http://www.w3.org/2001/xml-events" xmlns:xlink="http://www.w3.org/1999/xlink"><defs /><text fill="rgb(0,0,0)" font-size="25%" x="24.0" y="6.0">Moved</text><rect fill="rgb(200,0,0)" height="2.5" width="2.5" x="18.0" y="3.0" /><text fill="rgb(0,0,0)" font-size="25%" x="24.0" y="12.0">Unchanged</text><rect fill="rgb(0,200,0)" height="2.5" width="2.5" x="18.0" y="9.0" /><text fill="rgb(0,0,0)" font-size="25%" x="24.0" y="18.0">Changed</text><rect fill="rgb(0,0,200)" height="2.5" width="2.5" x="18.0" y="15.0" /><text fill="rgb(0,0,0)" font-size="25%" x="24.0" y="24.0">Deleted</text><rect fill="rgb(100,100,0)" height="2.5" width="2.5" x="18.0" y="21.0" /><text fill="rgb(0,0,0)" font-size="25%" x="24.0" y="30.0">Added</text><rect fill="rgb(100,0,100)" height="2.5" width="2.5" x="18.0" y="27.0" /><text fill="rgb(0,0,0)" font-size="25%" x="24.0" y="36.0">Verified</text><rect fill="rgb(0,100,100)" height="2.5" width="2.5" x="18.0" y="33.0" /><text fill="rgb(0,0,0)" font-size="25%" x="24.0" y="42.0">TagConsitency</text><rect fill="rgb(150,0,0)" height="2.5" width="2.5" x="18.0" y="39.0" /><text fill="rgb(0,0,0)" font-size="25%" x="24.0" y="48.0">TextAttributeValueConsitency</text><rect fill="rgb(0,150,0)" height="2.5" width="2.5" x="18.0" y="45.0" /><text fill="rgb(0,0,0)" font-size="25%" x="24.0" y="54.0">Unknown</text><rect fill="rgb(0,0,150)" height="2.5" width="2.5" x="18.0" y="51.0" /><text fill="rgb(0,0,0)" font-size="25%" x="24.0" y="60.0">TagAttributeNameConsitency</text><rect fill="rgb(150,50,0)" height="2.5" width="2.5" x="18.0" y="57.0" /></svg>